HIERARCHY
ROOT Hips
{
  OFFSET -333.365 93.14 611.219
  CHANNELS 6 Xposition Yposition Zposition Zrotation Xrotation Yrotation
  JOINT Spine
  {
    OFFSET 0 8 0
    CHANNELS 6 Xposition Yposition Zposition Zrotation Xrotation Yrotation
    JOINT Spine1
    {
      OFFSET 3.08527e-05 8 0
      CHANNELS 6 Xposition Yposition Zposition Zrotation Xrotation Yrotation
      JOINT Spine2
      {
        OFFSET -2.05552e-05 8 0
        CHANNELS 6 Xposition Yposition Zposition Zrotation Xrotation Yrotation
        JOINT Spine3
        {
          OFFSET 0 8 0
          CHANNELS 6 Xposition Yposition Zposition Zrotation Xrotation Yrotation
          JOINT Neck
          {
            OFFSET 0.000115622 17 9.06621e-05
            CHANNELS 6 Xposition Yposition Zposition Zrotation Xrotation Yrotation
            JOINT Head
            {
              OFFSET 1.57546e-05 10.8 -2.39568e-05
              CHANNELS 6 Xposition Yposition Zposition Zrotation Xrotation Yrotation
              End Site
              {
                OFFSET 0 20.25 0
              }
            }
          }
          JOINT LeftShoulder
          {
            OFFSET 5.00014 17 6.0447e-05
            CHANNELS 6 Xposition Yposition Zposition Zrotation Xrotation Yrotation
            JOINT LeftShoulder2
            {
              OFFSET 6.45 0 0
              CHANNELS 6 Xposition Yposition Zposition Zrotation Xrotation Yrotation
              JOINT LeftArm
              {
                OFFSET 6.44997 -0.000349295 0.000404518
                CHANNELS 6 Xposition Yposition Zposition Zrotation Xrotation Yrotation
                JOINT LeftForeArm
                {
                  OFFSET 1.05729e-05 -32.4 -2
                  CHANNELS 6 Xposition Yposition Zposition Zrotation Xrotation Yrotation
                  JOINT LeftHand
                  {
                    OFFSET -2.2471e-05 -25.65 2
                    CHANNELS 6 Xposition Yposition Zposition Zrotation Xrotation Yrotation
                    JOINT LeftHandThumb1
                    {
                      OFFSET -0.499954 -1.5 2.65003
                      CHANNELS 6 Xposition Yposition Zposition Zrotation Xrotation Yrotation
                      JOINT LeftHandThumb2
                      {
                        OFFSET -3.38909e-05 -3.80002 3.7
                        CHANNELS 6 Xposition Yposition Zposition Zrotation Xrotation Yrotation
                        JOINT LeftHandThumb3
                        {
                          OFFSET 1.97115e-05 -2.99999 2.7
                          CHANNELS 6 Xposition Yposition Zposition Zrotation Xrotation Yrotation
                          End Site
                          {
                            OFFSET -3.26162e-05 -2.30003 1.80002
                          }
                        }
                      }
                    }
                    JOINT LeftHandIndex
                    {
                      OFFSET 1.86204e-05 -1.89999 1.6
                      CHANNELS 6 Xposition Yposition Zposition Zrotation Xrotation Yrotation
                      JOINT LeftHandIndex1
                      {
                        OFFSET -1.65151e-05 -8.30003 1.90001
                        CHANNELS 6 Xposition Yposition Zposition Zrotation Xrotation Yrotation
                        JOINT LeftHandIndex2
                        {
                          OFFSET 5.20337e-05 -4.5 0
                          CHANNELS 6 Xposition Yposition Zposition Zrotation Xrotation Yrotation
                          JOINT LeftHandIndex3
                          {
                            OFFSET -1.4408e-05 -3.39999 -2.49491e-05
                            CHANNELS 6 Xposition Yposition Zposition Zrotation Xrotation Yrotation
                            End Site
                            {
                              OFFSET 0 -2.60002 0
                            }
                          }
                        }
                      }
                    }
                    JOINT LeftHandMiddle
                    {
                      OFFSET -0.249976 -2.19999 0.400011
                      CHANNELS 6 Xposition Yposition Zposition Zrotation Xrotation Yrotation
                      JOINT LeftHandMiddle1
                      {
                        OFFSET 0 -8.30002 0.999992
                        CHANNELS 6 Xposition Yposition Zposition Zrotation Xrotation Yrotation
                        JOINT LeftHandMiddle2
                        {
                          OFFSET 1.416e-05 -4.64999 2.01991e-05
                          CHANNELS 6 Xposition Yposition Zposition Zrotation Xrotation Yrotation
                          JOINT LeftHandMiddle3
                          {
                            OFFSET -1.33569e-05 -3.30001 0
                            CHANNELS 6 Xposition Yposition Zposition Zrotation Xrotation Yrotation
                            End Site
                            {
                              OFFSET -5.67115e-05 -2.69998 -1.67858e-05
                            }
                          }
                        }
                      }
                    }
                    JOINT LeftHandRing
                    {
                      OFFSET -0.499965 -2.15 -0.799972
                      CHANNELS 6 Xposition Yposition Zposition Zrotation Xrotation Yrotation
                      JOINT LeftHandRing1
                      {
                        OFFSET 0 -7.75 -0.2
                        CHANNELS 6 Xposition Yposition Zposition Zrotation Xrotation Yrotation
                        JOINT LeftHandRing2
                        {
                          OFFSET 0 -3.8 -1.13399e-05
                          CHANNELS 6 Xposition Yposition Zposition Zrotation Xrotation Yrotation
                          JOINT LeftHandRing3
                          {
                            OFFSET 0 -3.40002 0
                            CHANNELS 6 Xposition Yposition Zposition Zrotation Xrotation Yrotation
                            End Site
                            {
                              OFFSET 2.16518e-05 -2.59997 0
                            }
                          }
                        }
                      }
                    }
                    JOINT LeftHandPinky
                    {
                      OFFSET -0.749978 -1.75001 -1.84998
                      CHANNELS 6 Xposition Yposition Zposition Zrotation Xrotation Yrotation
                      JOINT LeftHandPinky1
                      {
                        OFFSET 0 -7.15 -0.999994
                        CHANNELS 6 Xposition Yposition Zposition Zrotation Xrotation Yrotation
                        JOINT LeftHandPinky2
                        {
                          OFFSET 0 -3.00001 -1.66437e-05
                          CHANNELS 6 Xposition Yposition Zposition Zrotation Xrotation Yrotation
                          JOINT LeftHandPinky3
                          {
                            OFFSET 2.91489e-05 -2.34999 2.54969e-05
                            CHANNELS 6 Xposition Yposition Zposition Zrotation Xrotation Yrotation
                            End Site
                            {
                              OFFSET 1.51675e-05 -2.10001 0
                            }
                          }
                        }
                      }
                    }
                  }
                }
              }
            }
          }
          JOINT RightShoulder
          {
            OFFSET -4.99991 17 0.000120877
            CHANNELS 6 Xposition Yposition Zposition Zrotation Xrotation Yrotation
            JOINT RightShoulder2
            {
              OFFSET -6.45 0 0
              CHANNELS 6 Xposition Yposition Zposition Zrotation Xrotation Yrotation
              JOINT RightArm
              {
                OFFSET -6.44995 -8.04861e-05 0.000257065
                CHANNELS 6 Xposition Yposition Zposition Zrotation Xrotation Yrotation
                JOINT RightForeArm
                {
                  OFFSET 0 -32.4 -1.99998
                  CHANNELS 6 Xposition Yposition Zposition Zrotation Xrotation Yrotation
                  JOINT RightHand
                  {
                    OFFSET 2.31307e-05 -25.65 2.00002
                    CHANNELS 6 Xposition Yposition Zposition Zrotation Xrotation Yrotation
                    JOINT RightHandThumb1
                    {
                      OFFSET 0.499992 -1.49999 2.65001
                      CHANNELS 6 Xposition Yposition Zposition Zrotation Xrotation Yrotation
                      JOINT RightHandThumb2
                      {
                        OFFSET 0 -3.8 3.69997
                        CHANNELS 6 Xposition Yposition Zposition Zrotation Xrotation Yrotation
                        JOINT RightHandThumb3
                        {
                          OFFSET 0 -3 2.70001
                          CHANNELS 6 Xposition Yposition Zposition Zrotation Xrotation Yrotation
                          End Site
                          {
                            OFFSET 0 -2.30002 1.8
                          }
                        }
                      }
                    }
                    JOINT RightHandIndex
                    {
                      OFFSET -2.27376e-05 -1.89999 1.59997
                      CHANNELS 6 Xposition Yposition Zposition Zrotation Xrotation Yrotation
                      JOINT RightHandIndex1
                      {
                        OFFSET 2.03722e-05 -8.30002 1.89996
                        CHANNELS 6 Xposition Yposition Zposition Zrotation Xrotation Yrotation
                        JOINT RightHandIndex2
                        {
                          OFFSET -1.90643e-05 -4.49999 1.04263e-05
                          CHANNELS 6 Xposition Yposition Zposition Zrotation Xrotation Yrotation
                          JOINT RightHandIndex3
                          {
                            OFFSET 5.93498e-05 -3.40001 0
                            CHANNELS 6 Xposition Yposition Zposition Zrotation Xrotation Yrotation
                            End Site
                            {
                              OFFSET 0 -2.59999 -1.24202e-05
                            }
                          }
                        }
                      }
                    }
                    JOINT RightHandMiddle
                    {
                      OFFSET 0.249995 -2.2 0.399993
                      CHANNELS 6 Xposition Yposition Zposition Zrotation Xrotation Yrotation
                      JOINT RightHandMiddle1
                      {
                        OFFSET -2.21304e-05 -8.3 0.999972
                        CHANNELS 6 Xposition Yposition Zposition Zrotation Xrotation Yrotation
                        JOINT RightHandMiddle2
                        {
                          OFFSET -6.2525e-05 -4.65 -1.464e-05
                          CHANNELS 6 Xposition Yposition Zposition Zrotation Xrotation Yrotation
                          JOINT RightHandMiddle3
                          {
                            OFFSET 3.19942e-05 -3.30001 2.49922e-05
                            CHANNELS 6 Xposition Yposition Zposition Zrotation Xrotation Yrotation
                            End Site
                            {
                              OFFSET 0 -2.7 2.86381e-05
                            }
                          }
                        }
                      }
                    }
                    JOINT RightHandRing
                    {
                      OFFSET 0.499981 -2.15001 -0.800036
                      CHANNELS 6 Xposition Yposition Zposition Zrotation Xrotation Yrotation
                      JOINT RightHandRing1
                      {
                        OFFSET 0 -7.75 -0.199992
                        CHANNELS 6 Xposition Yposition Zposition Zrotation Xrotation Yrotation
                        JOINT RightHandRing2
                        {
                          OFFSET 0 -3.8 1.20045e-05
                          CHANNELS 6 Xposition Yposition Zposition Zrotation Xrotation Yrotation
                          JOINT RightHandRing3
                          {
                            OFFSET -2.33214e-05 -3.40001 1.42077e-05
                            CHANNELS 6 Xposition Yposition Zposition Zrotation Xrotation Yrotation
                            End Site
                            {
                              OFFSET 0 -2.59997 -2.09274e-05
                            }
                          }
                        }
                      }
                    }
                    JOINT RightHandPinky
                    {
                      OFFSET 0.749986 -1.74999 -1.85001
                      CHANNELS 6 Xposition Yposition Zposition Zrotation Xrotation Yrotation
                      JOINT RightHandPinky1
                      {
                        OFFSET 0 -7.15 -1
                        CHANNELS 6 Xposition Yposition Zposition Zrotation Xrotation Yrotation
                        JOINT RightHandPinky2
                        {
                          OFFSET 0 -3.00001 0
                          CHANNELS 6 Xposition Yposition Zposition Zrotation Xrotation Yrotation
                          JOINT RightHandPinky3
                          {
                            OFFSET 0 -2.34998 -1.77743e-05
                            CHANNELS 6 Xposition Yposition Zposition Zrotation Xrotation Yrotation
                            End Site
                            {
                              OFFSET 3.15903e-05 -2.09997 -2.99554e-05
                            }
                          }
                        }
                      }
                    }
                  }
                }
              }
            }
          }
        }
      }
    }
  }
  JOINT LeftUpLeg
  {
    OFFSET 7.99997 0 -1.14586e-05
    CHANNELS 6 Xposition Yposition Zposition Zrotation Xrotation Yrotation
    JOINT LeftLeg
    {
      OFFSET -1.04886e-05 -45 -0.999995
      CHANNELS 6 Xposition Yposition Zposition Zrotation Xrotation Yrotation
      JOINT LeftFoot
      {
        OFFSET 4.50377e-05 -41 -2
        CHANNELS 6 Xposition Yposition Zposition Zrotation Xrotation Yrotation
        JOINT LeftToeBase
        {
          OFFSET 0 -7.5 12.5
          CHANNELS 6 Xposition Yposition Zposition Zrotation Xrotation Yrotation
          JOINT LeftFootToe
          {
            OFFSET 0 0 4
            CHANNELS 6 Xposition Yposition Zposition Zrotation Xrotation Yrotation
            End Site
            {
              OFFSET 0 0 0
            }
          }
        }
      }
    }
  }
  JOINT RightUpLeg
  {
    OFFSET -7.99997 0 1.14586e-05
    CHANNELS 6 Xposition Yposition Zposition Zrotation Xrotation Yrotation
    JOINT RightLeg
    {
      OFFSET -2.86613e-05 -45 -1.00002
      CHANNELS 6 Xposition Yposition Zposition Zrotation Xrotation Yrotation
      JOINT RightFoot
      {
        OFFSET 1.92971e-05 -41 -1.99999
        CHANNELS 6 Xposition Yposition Zposition Zrotation Xrotation Yrotation
        JOINT RightToeBase
        {
          OFFSET -1.18849e-05 -7.5 12.5
          CHANNELS 6 Xposition Yposition Zposition Zrotation Xrotation Yrotation
          JOINT RightFootToe
          {
            OFFSET 0 0 4
            CHANNELS 6 Xposition Yposition Zposition Zrotation Xrotation Yrotation
            End Site
            {
              OFFSET 0 0 0
            }
          }
        }
      }
    }
  }
}
MOTION
Frames:	3
Frame Time:	0.0111111
-334.733 92.987 612.425 0.814878 -1.82439 85.4781 1.13687e-13 8 0 3.50942 -3.46151 -3.83193 1.13687e-13 8 5.68434e-14 -1.04734 2.11859 -1.4837 0 8 -5.68434e-14 -0.525858 1.0553 -0.746664 1.13687e-13 8 0 -0.525942 1.05441 -0.745724 0 17 -2.84217e-14 -1.65077 5.01901 7.33449 -1.13687e-13 10.8 0 -6.89564 15.4557 18.0806 5 17 2.84217e-14 -1.4367 -7.92713 1.50552 6.45 0 0 0.867676 -0.267181 0.838503 6.45 -5.68434e-14 2.84217e-14 3.58936 -9.83428 32.1812 5.68434e-14 -32.4 -2 -45.9154 -60.5623 9.80388 0 -25.65 2 -26.345 -2.90518 9.76592 -0.5 -1.5 2.65 2.80357 -8.88734 20.8838 -5.68434e-14 -3.8 3.7 -0.05618 10.7586 -0.0186959 5.68434e-14 -3 2.7 -0.0141262 68.0424 0.0316517 0 -1.9 1.6 4.37326e-15 0 -0 0 -8.3 1.9 -2.32816 8.97119 0.436626 0 -4.5 1.13687e-13 -51.4981 -0.0194105 -0.0630193 0 -3.4 0 -35.7115 0.00408115 -0.0426232 -0.25 -2.2 0.4 4.37326e-15 0 -0 0 -8.3 1 -10.493 11.4793 1.81607 0 -4.65 0 -24.9293 0.00309359 -0.0512632 5.68434e-14 -3.3 0 -18.9276 0.00875985 -0.0319087 -0.5 -2.15 -0.8 4.37326e-15 0 -0 0 -7.75 -0.2 -31.5229 21.0032 8.03817 0 -3.8 0 -3.08537 9.29098e-05 -0.00786286 5.68434e-14 -3.4 5.68434e-14 -2.9411 -9.24621e-05 -0.00747539 -0.75 -1.75 -1.85 4.37326e-15 0 -0 5.68434e-14 -7.15 -1 -40.2898 25.4006 12.408 5.68434e-14 -3 -5.68434e-14 -0.0297866 0.0500648 -0.0430871 -5.68434e-14 -2.35 0 1.81838e-06 0.048099 -0.0421553 -5 17 2.84217e-14 -4.91576 -3.302 -0.923318 -6.45 5.68434e-14 2.84217e-14 -1.48218 -0.100058 -0.832455 -6.45 1.42109e-14 2.84217e-14 -20.6097 -38.4302 -0.355684 0 -32.4 -2 136.602 -49.0534 126.001 -5.68434e-14 -25.65 2 14.2714 -17.7207 -9.48931 0.5 -1.5 2.65 -3.03695 8.52341 2.91046 -5.68434e-14 -3.8 3.7 0.422547 15.8108 -0.171144 5.68434e-14 -3 2.7 0.148109 64.5646 -0.129719 5.68434e-14 -1.9 1.6 9.54166e-15 1.59028e-15 4.77083e-15 5.68434e-14 -8.3 1.9 9.72889 -23.4285 1.6807 2.84217e-14 -4.5 0 2.068 0.00110961 0.0224009 2.84217e-14 -3.4 0 4.35685e-06 0.000893665 0.0252989 0.25 -2.2 0.4 9.54166e-15 1.59028e-15 4.77083e-15 0 -8.3 1 6.69597 -19.7847 0.721782 -5.68434e-14 -4.65 0 49.8344 0.0416288 0.0609235 2.84217e-14 -3.3 0 34.3853 0.0473424 0.0169927 0.5 -2.15 -0.8 9.54166e-15 1.59028e-15 4.77083e-15 0 -7.75 -0.2 8.29253 -15.8667 0.695892 0 -3.8 0 74.5484 0.095954 0.0694067 -5.68434e-14 -3.4 0 58.8627 0.129278 -0.0548518 0.75 -1.75 -1.85 9.54166e-15 1.59028e-15 4.77083e-15 -1.13687e-13 -7.15 -1 7.37981 -20.5049 0.22716 -5.68434e-14 -3 1.13687e-13 38.2474 0.0154508 0.0552212 1.42109e-14 -2.35 0 27.0644 0.0185563 0.0280629 8 -1.42109e-14 0 3.79791 -1.62421 13.1691 1.13687e-13 -45 -1 -1.34453 10.9173 -6.65428 1.13687e-13 -41 -2 0.900237 -8.62625 -3.21696 0 -7.5 12.5 -4.2249e-08 0.114793 -2.72475e-06 -1.13687e-13 0 4 3.05889 -4.80653 31.0792 -8 -1.42109e-14 0 3.47031 -5.69799 -12.5898 0 -45 -1 -0.00752791 5.85964 -0.282864 0 -41 -2 -3.10915 0.248106 -0.365046 0 -7.5 12.5 3.14131e-09 0.0598932 -4.17869e-06 0 5.55112e-17 4 5.95349 -0.368229 23.8625 
-334.696 92.9957 612.423 0.812701 -1.79322 85.3762 0 8 -5.68434e-14 3.46461 -3.47917 -3.84622 -1.13687e-13 8 -2.84217e-14 -1.04358 2.12584 -1.49472 0 8 5.68434e-14 -0.526543 1.05529 -0.752192 0 8 5.68434e-14 -0.525555 1.05496 -0.751936 1.13687e-13 17 0 -1.66422 4.95505 7.39154 1.13687e-13 10.8 0 -6.90413 15.4421 18.222 5 17 0 -1.47096 -8.01735 1.53996 6.45 0 2.84217e-14 0.868828 -0.273464 0.87385 6.45 -2.84217e-14 -5.68434e-14 3.76853 -9.70329 32.2934 1.13687e-13 -32.4 -2 -45.978 -60.4532 9.64394 5.68434e-14 -25.65 2 -27.4464 -2.57782 9.42042 -0.5 -1.5 2.65 3.03455 -9.46439 21.5164 -5.68434e-14 -3.8 3.7 -0.056861 11.3026 -0.0143323 0 -3 2.7 -0.0140069 67.9613 0.031541 0 -1.9 1.6 3.18055e-15 1.59028e-15 -0 0 -8.3 1.9 -2.22078 8.5736 0.409452 5.68434e-14 -4.5 0 -49.4108 -0.0194105 -0.0531435 0 -3.4 1.13687e-13 -34.25 0.00408115 -0.0343606 -0.25 -2.2 0.4 3.18055e-15 1.59028e-15 -0 0 -8.3 1 -9.76162 11.5106 1.74038 5.68434e-14 -4.65 1.13687e-13 -23.1358 0.000231164 -0.0779107 5.68434e-14 -3.3 1.13687e-13 -17.7432 0.0135508 -0.0493471 -0.5 -2.15 -0.8 3.18055e-15 1.59028e-15 -0 0 -7.75 -0.2 -29.5681 21.6912 7.79126 5.68434e-14 -3.8 -5.68434e-14 -3.27791 9.29097e-05 0.0122193 5.68434e-14 -3.4 0 -3.1077 -9.24621e-05 0.010425 -0.75 -1.75 -1.85 3.18055e-15 1.59028e-15 -0 0 -7.15 -1 -38.303 26.4084 12.2167 0 -3 5.68434e-14 -0.0297866 0.0500648 -0.0430871 -5.68434e-14 -2.35 -1.13687e-13 1.81838e-06 0.048099 -0.0421553 -5 17 0 -4.91951 -3.31179 -0.805264 -6.45 -1.42109e-14 -2.84217e-14 -1.49615 -0.101121 -0.855223 -6.45 1.42109e-14 -5.68434e-14 -20.8993 -38.7151 -0.453314 0 -32.4 -2 137.066 -49.3637 126.737 -5.68434e-14 -25.65 2 14.8736 -17.8754 -9.58285 0.5 -1.5 2.65 -3.58193 7.81802 2.55961 5.68434e-14 -3.8 3.7 0.37232 16.8959 -0.162466 5.68434e-14 -3 2.7 0.147077 65.2864 -0.131764 8.52651e-14 -1.9 1.6 9.54166e-15 3.18055e-15 7.95139e-16 5.68434e-14 -8.3 1.9 9.4466 -23.1716 1.60674 0 -4.5 -1.13687e-13 2.068 0.00110961 0.0224009 2.84217e-14 -3.4 -1.13687e-13 4.35685e-06 0.000893665 0.0252989 0.25 -2.2 0.4 9.54166e-15 3.18055e-15 7.95139e-16 5.68434e-14 -8.3 1 6.30111 -19.332 0.639158 2.84217e-14 -4.65 0 46.8125 0.0266147 0.0714132 2.84217e-14 -3.3 0 32.3717 0.0397744 0.0286945 0.5 -2.15 -0.8 9.54166e-15 3.18055e-15 7.95139e-16 0 -7.75 -0.2 7.69848 -15.0755 0.612481 -5.68434e-14 -3.8 1.13687e-13 71.6037 0.128533 0.128137 -5.68434e-14 -3.4 0 55.2932 0.194674 -0.0287175 0.75 -1.75 -1.85 9.54166e-15 3.18055e-15 7.95139e-16 -2.84217e-14 -7.15 -1 7.28044 -20.3994 0.220699 0 -3 0 35.9713 0.0154508 0.0982641 0 -2.35 0 25.7193 0.0329193 0.0493446 8 1.42109e-14 5.68434e-14 3.72869 -1.53965 13.0651 0 -45 -1 -1.34468 10.7976 -6.66587 -1.13687e-13 -41 -2 0.91224 -8.5828 -2.96522 0 -7.5 12.5 -4.2249e-08 0.114793 -2.72475e-06 0 0 4 3.07835 -4.84205 31.0609 -8 -1.42109e-14 0 3.44956 -5.64674 -12.5249 0 -45 -1 -0.00786538 5.79164 -0.28283 -1.13687e-13 -41 -2 -3.10269 0.265596 -0.340676 0 -7.5 12.5 3.14131e-09 0.0598932 -4.17869e-06 0 0 4 5.93525 -0.417707 23.87 
-334.659 93.0042 612.418 0.809542 -1.76259 85.278 0 8 -1.13687e-13 3.418 -3.49491 -3.86159 0 8 8.52651e-14 -1.03787 2.13148 -1.50834 0 8 5.68434e-14 -0.525712 1.05529 -0.758996 0 8 -5.68434e-14 -0.525036 1.0554 -0.758858 0 17 2.84217e-14 -1.68572 4.89165 7.44917 0 10.8 0 -6.91631 15.4208 18.3648 5 17 0 -1.50786 -8.10218 1.56674 6.45 0 0 0.869701 -0.274526 0.906796 6.45 -2.84217e-14 0 3.94584 -9.56365 32.3993 -1.13687e-13 -32.4 -2 -46.0406 -60.3702 9.44777 0 -25.65 2 -28.4006 -2.30405 9.11487 -0.5 -1.5 2.65 3.24374 -9.96627 22.0545 -5.68434e-14 -3.8 3.7 -0.0575236 11.7946 -0.0105006 2.84217e-14 -3 2.7 -0.0139013 67.8892 0.0314432 0 -1.9 1.6 9.14409e-15 3.18055e-15 -3.18055e-15 -1.13687e-13 -8.3 1.9 -2.13006 8.2365 0.386351 0 -4.5 -1.13687e-13 -47.3733 -0.0194105 -0.0443792 -5.68434e-14 -3.4 -1.13687e-13 -32.8464 0.00408115 -0.0273685 -0.25 -2.2 0.4 9.14409e-15 3.18055e-15 -3.18055e-15 -5.68434e-14 -8.3 1 -9.11687 11.5569 1.6761 5.68434e-14 -4.65 1.13687e-13 -21.1428 -0.00330723 -0.0947871 5.68434e-14 -3.3 0 -16.4086 0.0154189 -0.0608475 -0.5 -2.15 -0.8 9.14409e-15 3.18055e-15 -3.18055e-15 0 -7.75 -0.2 -27.7405 22.3352 7.55802 1.13687e-13 -3.8 0 -3.51264 9.29097e-05 0.0265035 0 -3.4 5.68434e-14 -3.31402 -9.24621e-05 0.0231784 -0.75 -1.75 -1.85 9.14409e-15 3.18055e-15 -3.18055e-15 -5.68434e-14 -7.15 -1 -36.45 27.3447 12.0334 5.68434e-14 -3 0 -0.0297866 0.0500648 -0.0430871 -5.68434e-14 -2.35 0 1.81838e-06 0.048099 -0.0421553 -5 17 0 -4.9137 -3.31342 -0.683322 -6.45 1.42109e-14 0 -1.5077 -0.101139 -0.87712 -6.45 4.26326e-14 -2.84217e-14 -21.2368 -38.9155 -0.613867 -1.13687e-13 -32.4 -2 137.502 -49.6168 127.436 -5.68434e-14 -25.65 2 15.4675 -18.0196 -9.60435 0.5 -1.5 2.65 -4.13869 7.18549 2.21598 0 -3.8 3.7 0.322312 17.9758 -0.150146 0 -3 2.7 0.140891 65.9748 -0.12846 2.84217e-14 -1.9 1.6 3.18055e-15 -3.18055e-15 -7.95139e-16 5.68434e-14 -8.3 1.9 9.21013 -22.9551 1.54456 2.84217e-14 -4.5 0 2.068 0.00110961 0.0224009 0 -3.4 0 4.35685e-06 0.000893665 0.0252989 0.25 -2.2 0.4 3.18055e-15 -3.18055e-15 -7.95139e-16 8.52651e-14 -8.3 1 6.01123 -19.0007 0.5791 0 -4.65 1.13687e-13 43.3502 0.0127981 0.0779044 2.84217e-14 -3.3 0 30.0788 0.0317566 0.0378694 0.5 -2.15 -0.8 3.18055e-15 -3.18055e-15 -7.95139e-16 -5.68434e-14 -7.75 -0.2 7.07666 -14.4454 0.527472 -5.68434e-14 -3.8 0 67.9575 0.141637 0.168656 -5.68434e-14 -3.4 -1.13687e-13 51.383 0.231576 -0.00348071 0.75 -1.75 -1.85 3.18055e-15 -3.18055e-15 -7.95139e-16 -2.84217e-14 -7.15 -1 7.09988 -20.182 0.207196 0 -3 0 33.0938 0.0154508 0.145499 0 -2.35 -1.13687e-13 23.9173 0.045433 0.0775349 8 0 0 3.66037 -1.45781 12.9634 0 -45 -1 -1.34473 10.6804 -6.67513 0 -41 -2 0.925183 -8.54231 -2.72301 0 -7.5 12.5 -4.2249e-08 0.114793 -2.72475e-06 0 0 4 3.1005 -4.8729 31.0923 -8 0 -5.68434e-14 3.42795 -5.59851 -12.4633 -1.13687e-13 -45 -1 -0.00818509 5.72719 -0.282798 1.13687e-13 -41 -2 -3.09458 0.281759 -0.316241 1.13687e-13 -7.5 12.5 3.14131e-09 0.0598932 -4.17869e-06 0 0 4 5.91839 -0.464852 23.874 
